<svg viewBox="0 0 200 200" xmlns="http://www.w3.org/2000/svg">
  <!-- Cloud shape -->
  <path d="M 60 120 C 45 120 35 110 35 95 C 35 82 45 72 55 70 C 60 55 72 45 85 45 C 105 45 120 60 120 80 C 135 80 145 90 145 105 C 145 120 135 130 120 130 Z" fill="#4A90E2" stroke="#2c5aa0" stroke-width="2"/>
  <!-- Star inside cloud -->
  <polygon points="85,70 90,85 105,85 92,95 97,110 85,100 73,110 78,95 65,85 80,85" fill="#FFD700"/>
  <!-- Cloud Innovation text -->
  <text x="100" y="165" font-family="Arial, sans-serif" font-size="12" font-weight="bold" text-anchor="middle" fill="#2c5aa0">CLOUD</text>
  <text x="100" y="180" font-family="Arial, sans-serif" font-size="12" font-weight="bold" text-anchor="middle" fill="#2c5aa0">INNOVATION</text>
</svg>